<?xml version="1.0" encoding="UTF-8" standalone="no"?>
<!-- Created with Inkscape (http://www.inkscape.org/) -->

<svg
   xmlns:dc="http://purl.org/dc/elements/1.1/"
   xmlns:cc="http://creativecommons.org/ns#"
   xmlns:rdf="http://www.w3.org/1999/02/22-rdf-syntax-ns#"
   xmlns:svg="http://www.w3.org/2000/svg"
   xmlns="http://www.w3.org/2000/svg"
   xmlns:sodipodi="http://sodipodi.sourceforge.net/DTD/sodipodi-0.dtd"
   xmlns:inkscape="http://www.inkscape.org/namespaces/inkscape"
   width="1440"
   height="2560"
   viewBox="0 0 406.4 722.4889"
   version="1.1"
   id="svg8"
   inkscape:version="0.91 r13725"
   sodipodi:docname="splashscreen.svg"
   inkscape:export-filename="/home/yosarin/src/github.com/YoSarin/yopass/res/screens/ios/Default@2x~universal~anyany.png"
   inkscape:export-xdpi="159.99609"
   inkscape:export-ydpi="159.99609">
  <defs
     id="defs2" />
  <sodipodi:namedview
     id="base"
     pagecolor="#ffffff"
     bordercolor="#666666"
     borderopacity="1.0"
     inkscape:pageopacity="0.0"
     inkscape:pageshadow="2"
     inkscape:zoom="0.24748738"
     inkscape:cx="-429.78708"
     inkscape:cy="1236.7697"
     inkscape:document-units="mm"
     inkscape:current-layer="layer1"
     showgrid="false"
     inkscape:window-width="1920"
     inkscape:window-height="916"
     inkscape:window-x="0"
     inkscape:window-y="0"
     inkscape:window-maximized="1"
     units="px" />
  <metadata
     id="metadata5">
    <rdf:RDF>
      <cc:Work
         rdf:about="">
        <dc:format>image/svg+xml</dc:format>
        <dc:type
           rdf:resource="http://purl.org/dc/dcmitype/StillImage" />
        <dc:title></dc:title>
      </cc:Work>
    </rdf:RDF>
  </metadata>
  <g
     inkscape:label="Vrstva 1"
     inkscape:groupmode="layer"
     id="layer1"
     transform="translate(0,425.48891)">
    <g
       id="g385"
       inkscape:export-xdpi="599.95056"
       inkscape:export-ydpi="599.95056"
       transform="matrix(2.3131593,0,0,2.3131593,-39.681724,-472.38828)">
      <g
         transform="translate(18.065465,-82.776786)"
         id="g111">
        <g
           id="surface1"
           transform="matrix(0.5088141,0,0,0.5088141,18.317308,155.06994)"
           style="fill:#000000">
          <path
             id="path54"
             d="M 16,0 C 13.789063,0 11.878906,0.917969 10.6875,2.40625 9.496094,3.894531 9,5.824219 9,7.90625 L 9,9 12,9 12,7.90625 C 12,6.328125 12.390625,5.085938 13.03125,4.28125 13.671875,3.476563 14.542969,3 16,3 17.460938,3 18.328125,3.449219 18.96875,4.25 19.609375,5.050781 20,6.308594 20,7.90625 L 20,9 23,9 23,7.90625 C 23,5.8125 22.472656,3.863281 21.28125,2.375 20.089844,0.886719 18.207031,0 16,0 Z M 9,10 c -1.65625,0 -3,1.34375 -3,3 l 0,10 c 0,1.65625 1.34375,3 3,3 l 14,0 c 1.65625,0 3,-1.34375 3,-3 l 0,-10 c 0,-1.65625 -1.34375,-3 -3,-3 z m 7,5 c 1.105469,0 2,0.894531 2,2 0,0.738281 -0.402344,1.371094 -1,1.71875 L 17,21 c 0,0.550781 -0.449219,1 -1,1 -0.550781,0 -1,-0.449219 -1,-1 l 0,-2.28125 C 14.402344,18.371094 14,17.738281 14,17 c 0,-1.105469 0.894531,-2 2,-2 z"
             inkscape:connector-curvature="0"
             style="fill:#000000" />
        </g>
        <g
           transform="matrix(0.5088141,0,0,0.5088141,35.596217,155.06994)"
           id="g69"
           style="fill:#2b2200">
          <path
             inkscape:connector-curvature="0"
             d="M 16,0 C 13.789063,0 11.878906,0.917969 10.6875,2.40625 9.496094,3.894531 9,5.824219 9,7.90625 L 9,9 12,9 12,7.90625 C 12,6.328125 12.390625,5.085938 13.03125,4.28125 13.671875,3.476563 14.542969,3 16,3 17.460938,3 18.328125,3.449219 18.96875,4.25 19.609375,5.050781 20,6.308594 20,7.90625 L 20,9 23,9 23,7.90625 C 23,5.8125 22.472656,3.863281 21.28125,2.375 20.089844,0.886719 18.207031,0 16,0 Z M 9,10 c -1.65625,0 -3,1.34375 -3,3 l 0,10 c 0,1.65625 1.34375,3 3,3 l 14,0 c 1.65625,0 3,-1.34375 3,-3 l 0,-10 c 0,-1.65625 -1.34375,-3 -3,-3 z m 7,5 c 1.105469,0 2,0.894531 2,2 0,0.738281 -0.402344,1.371094 -1,1.71875 L 17,21 c 0,0.550781 -0.449219,1 -1,1 -0.550781,0 -1,-0.449219 -1,-1 l 0,-2.28125 C 14.402344,18.371094 14,17.738281 14,17 c 0,-1.105469 0.894531,-2 2,-2 z"
             id="path67"
             style="fill:#2b2200" />
        </g>
        <g
           transform="matrix(0.5088141,0,0,0.5088141,52.875133,155.06994)"
           id="g73"
           style="fill:#554400">
          <path
             inkscape:connector-curvature="0"
             d="M 16,0 C 13.789063,0 11.878906,0.917969 10.6875,2.40625 9.496094,3.894531 9,5.824219 9,7.90625 L 9,9 12,9 12,7.90625 C 12,6.328125 12.390625,5.085938 13.03125,4.28125 13.671875,3.476563 14.542969,3 16,3 17.460938,3 18.328125,3.449219 18.96875,4.25 19.609375,5.050781 20,6.308594 20,7.90625 L 20,9 23,9 23,7.90625 C 23,5.8125 22.472656,3.863281 21.28125,2.375 20.089844,0.886719 18.207031,0 16,0 Z M 9,10 c -1.65625,0 -3,1.34375 -3,3 l 0,10 c 0,1.65625 1.34375,3 3,3 l 14,0 c 1.65625,0 3,-1.34375 3,-3 l 0,-10 c 0,-1.65625 -1.34375,-3 -3,-3 z m 7,5 c 1.105469,0 2,0.894531 2,2 0,0.738281 -0.402344,1.371094 -1,1.71875 L 17,21 c 0,0.550781 -0.449219,1 -1,1 -0.550781,0 -1,-0.449219 -1,-1 l 0,-2.28125 C 14.402344,18.371094 14,17.738281 14,17 c 0,-1.105469 0.894531,-2 2,-2 z"
             id="path71"
             style="fill:#554400" />
        </g>
        <g
           id="g77"
           transform="matrix(0.5088141,0,0,0.5088141,70.154046,155.06994)"
           style="fill:#806600">
          <path
             id="path75"
             d="M 16,0 C 13.789063,0 11.878906,0.917969 10.6875,2.40625 9.496094,3.894531 9,5.824219 9,7.90625 L 9,9 12,9 12,7.90625 C 12,6.328125 12.390625,5.085938 13.03125,4.28125 13.671875,3.476563 14.542969,3 16,3 17.460938,3 18.328125,3.449219 18.96875,4.25 19.609375,5.050781 20,6.308594 20,7.90625 L 20,9 23,9 23,7.90625 C 23,5.8125 22.472656,3.863281 21.28125,2.375 20.089844,0.886719 18.207031,0 16,0 Z M 9,10 c -1.65625,0 -3,1.34375 -3,3 l 0,10 c 0,1.65625 1.34375,3 3,3 l 14,0 c 1.65625,0 3,-1.34375 3,-3 l 0,-10 c 0,-1.65625 -1.34375,-3 -3,-3 z m 7,5 c 1.105469,0 2,0.894531 2,2 0,0.738281 -0.402344,1.371094 -1,1.71875 L 17,21 c 0,0.550781 -0.449219,1 -1,1 -0.550781,0 -1,-0.449219 -1,-1 l 0,-2.28125 C 14.402344,18.371094 14,17.738281 14,17 c 0,-1.105469 0.894531,-2 2,-2 z"
             inkscape:connector-curvature="0"
             style="fill:#806600" />
        </g>
        <g
           transform="matrix(0.5088141,0,0,0.5088141,87.432959,155.06994)"
           id="g81"
           style="fill:#aa8800">
          <path
             inkscape:connector-curvature="0"
             d="M 16,0 C 13.789063,0 11.878906,0.917969 10.6875,2.40625 9.496094,3.894531 9,5.824219 9,7.90625 L 9,9 12,9 12,7.90625 C 12,6.328125 12.390625,5.085938 13.03125,4.28125 13.671875,3.476563 14.542969,3 16,3 17.460938,3 18.328125,3.449219 18.96875,4.25 19.609375,5.050781 20,6.308594 20,7.90625 L 20,9 23,9 23,7.90625 C 23,5.8125 22.472656,3.863281 21.28125,2.375 20.089844,0.886719 18.207031,0 16,0 Z M 9,10 c -1.65625,0 -3,1.34375 -3,3 l 0,10 c 0,1.65625 1.34375,3 3,3 l 14,0 c 1.65625,0 3,-1.34375 3,-3 l 0,-10 c 0,-1.65625 -1.34375,-3 -3,-3 z m 7,5 c 1.105469,0 2,0.894531 2,2 0,0.738281 -0.402344,1.371094 -1,1.71875 L 17,21 c 0,0.550781 -0.449219,1 -1,1 -0.550781,0 -1,-0.449219 -1,-1 l 0,-2.28125 C 14.402344,18.371094 14,17.738281 14,17 c 0,-1.105469 0.894531,-2 2,-2 z"
             id="path79"
             style="fill:#aa8800" />
        </g>
        <g
           id="g85"
           transform="matrix(0.5088141,0,0,0.5088141,104.71187,155.06994)"
           style="fill:#d4aa00">
          <path
             id="path83"
             d="M 16,0 C 13.789063,0 11.878906,0.917969 10.6875,2.40625 9.496094,3.894531 9,5.824219 9,7.90625 L 9,9 12,9 12,7.90625 C 12,6.328125 12.390625,5.085938 13.03125,4.28125 13.671875,3.476563 14.542969,3 16,3 17.460938,3 18.328125,3.449219 18.96875,4.25 19.609375,5.050781 20,6.308594 20,7.90625 L 20,9 23,9 23,7.90625 C 23,5.8125 22.472656,3.863281 21.28125,2.375 20.089844,0.886719 18.207031,0 16,0 Z M 9,10 c -1.65625,0 -3,1.34375 -3,3 l 0,10 c 0,1.65625 1.34375,3 3,3 l 14,0 c 1.65625,0 3,-1.34375 3,-3 l 0,-10 c 0,-1.65625 -1.34375,-3 -3,-3 z m 7,5 c 1.105469,0 2,0.894531 2,2 0,0.738281 -0.402344,1.371094 -1,1.71875 L 17,21 c 0,0.550781 -0.449219,1 -1,1 -0.550781,0 -1,-0.449219 -1,-1 l 0,-2.28125 C 14.402344,18.371094 14,17.738281 14,17 c 0,-1.105469 0.894531,-2 2,-2 z"
             inkscape:connector-curvature="0"
             style="fill:#d4aa00" />
        </g>
        <g
           id="g89"
           transform="matrix(0.5088141,0,0,0.5088141,121.99079,155.06994)"
           style="fill:#ffcc00">
          <path
             id="path87"
             d="M 16,0 C 13.789063,0 11.878906,0.917969 10.6875,2.40625 9.496094,3.894531 9,5.824219 9,7.90625 L 9,9 12,9 12,7.90625 C 12,6.328125 12.390625,5.085938 13.03125,4.28125 13.671875,3.476563 14.542969,3 16,3 17.460938,3 18.328125,3.449219 18.96875,4.25 19.609375,5.050781 20,6.308594 20,7.90625 L 20,9 23,9 23,7.90625 C 23,5.8125 22.472656,3.863281 21.28125,2.375 20.089844,0.886719 18.207031,0 16,0 Z M 9,10 c -1.65625,0 -3,1.34375 -3,3 l 0,10 c 0,1.65625 1.34375,3 3,3 l 14,0 c 1.65625,0 3,-1.34375 3,-3 l 0,-10 c 0,-1.65625 -1.34375,-3 -3,-3 z m 7,5 c 1.105469,0 2,0.894531 2,2 0,0.738281 -0.402344,1.371094 -1,1.71875 L 17,21 c 0,0.550781 -0.449219,1 -1,1 -0.550781,0 -1,-0.449219 -1,-1 l 0,-2.28125 C 14.402344,18.371094 14,17.738281 14,17 c 0,-1.105469 0.894531,-2 2,-2 z"
             inkscape:connector-curvature="0"
             style="fill:#ffcc00" />
        </g>
        <g
           transform="matrix(0.5088141,0,0,0.5088141,139.26971,155.06994)"
           id="g93"
           style="fill:#ffd42a">
          <path
             inkscape:connector-curvature="0"
             d="M 16,0 C 13.789063,0 11.878906,0.917969 10.6875,2.40625 9.496094,3.894531 9,5.824219 9,7.90625 L 9,9 12,9 12,7.90625 C 12,6.328125 12.390625,5.085938 13.03125,4.28125 13.671875,3.476563 14.542969,3 16,3 17.460938,3 18.328125,3.449219 18.96875,4.25 19.609375,5.050781 20,6.308594 20,7.90625 L 20,9 23,9 23,7.90625 C 23,5.8125 22.472656,3.863281 21.28125,2.375 20.089844,0.886719 18.207031,0 16,0 Z M 9,10 c -1.65625,0 -3,1.34375 -3,3 l 0,10 c 0,1.65625 1.34375,3 3,3 l 14,0 c 1.65625,0 3,-1.34375 3,-3 l 0,-10 c 0,-1.65625 -1.34375,-3 -3,-3 z m 7,5 c 1.105469,0 2,0.894531 2,2 0,0.738281 -0.402344,1.371094 -1,1.71875 L 17,21 c 0,0.550781 -0.449219,1 -1,1 -0.550781,0 -1,-0.449219 -1,-1 l 0,-2.28125 C 14.402344,18.371094 14,17.738281 14,17 c 0,-1.105469 0.894531,-2 2,-2 z"
             id="path91"
             style="fill:#ffd42a" />
        </g>
      </g>
      <g
         transform="translate(18.065465,-82.77677)"
         id="g297">
        <g
           style="fill:#000000"
           transform="matrix(0.5088141,0,0,0.5088141,18.317308,175.10267)"
           id="g115">
          <path
             style="fill:#000000"
             inkscape:connector-curvature="0"
             d="M 16,0 C 13.789063,0 11.878906,0.917969 10.6875,2.40625 9.496094,3.894531 9,5.824219 9,7.90625 L 9,9 12,9 12,7.90625 C 12,6.328125 12.390625,5.085938 13.03125,4.28125 13.671875,3.476563 14.542969,3 16,3 17.460938,3 18.328125,3.449219 18.96875,4.25 19.609375,5.050781 20,6.308594 20,7.90625 L 20,9 23,9 23,7.90625 C 23,5.8125 22.472656,3.863281 21.28125,2.375 20.089844,0.886719 18.207031,0 16,0 Z M 9,10 c -1.65625,0 -3,1.34375 -3,3 l 0,10 c 0,1.65625 1.34375,3 3,3 l 14,0 c 1.65625,0 3,-1.34375 3,-3 l 0,-10 c 0,-1.65625 -1.34375,-3 -3,-3 z m 7,5 c 1.105469,0 2,0.894531 2,2 0,0.738281 -0.402344,1.371094 -1,1.71875 L 17,21 c 0,0.550781 -0.449219,1 -1,1 -0.550781,0 -1,-0.449219 -1,-1 l 0,-2.28125 C 14.402344,18.371094 14,17.738281 14,17 c 0,-1.105469 0.894531,-2 2,-2 z"
             id="path113" />
        </g>
        <g
           style="fill:#0b280b"
           id="g119"
           transform="matrix(0.5088141,0,0,0.5088141,35.596217,175.10267)">
          <path
             style="fill:#0b280b"
             id="path117"
             d="M 16,0 C 13.789063,0 11.878906,0.917969 10.6875,2.40625 9.496094,3.894531 9,5.824219 9,7.90625 L 9,9 12,9 12,7.90625 C 12,6.328125 12.390625,5.085938 13.03125,4.28125 13.671875,3.476563 14.542969,3 16,3 17.460938,3 18.328125,3.449219 18.96875,4.25 19.609375,5.050781 20,6.308594 20,7.90625 L 20,9 23,9 23,7.90625 C 23,5.8125 22.472656,3.863281 21.28125,2.375 20.089844,0.886719 18.207031,0 16,0 Z M 9,10 c -1.65625,0 -3,1.34375 -3,3 l 0,10 c 0,1.65625 1.34375,3 3,3 l 14,0 c 1.65625,0 3,-1.34375 3,-3 l 0,-10 c 0,-1.65625 -1.34375,-3 -3,-3 z m 7,5 c 1.105469,0 2,0.894531 2,2 0,0.738281 -0.402344,1.371094 -1,1.71875 L 17,21 c 0,0.550781 -0.449219,1 -1,1 -0.550781,0 -1,-0.449219 -1,-1 l 0,-2.28125 C 14.402344,18.371094 14,17.738281 14,17 c 0,-1.105469 0.894531,-2 2,-2 z"
             inkscape:connector-curvature="0" />
        </g>
        <g
           style="fill:#165016"
           id="g123"
           transform="matrix(0.5088141,0,0,0.5088141,52.875133,175.10267)">
          <path
             style="fill:#165016"
             id="path121"
             d="M 16,0 C 13.789063,0 11.878906,0.917969 10.6875,2.40625 9.496094,3.894531 9,5.824219 9,7.90625 L 9,9 12,9 12,7.90625 C 12,6.328125 12.390625,5.085938 13.03125,4.28125 13.671875,3.476563 14.542969,3 16,3 17.460938,3 18.328125,3.449219 18.96875,4.25 19.609375,5.050781 20,6.308594 20,7.90625 L 20,9 23,9 23,7.90625 C 23,5.8125 22.472656,3.863281 21.28125,2.375 20.089844,0.886719 18.207031,0 16,0 Z M 9,10 c -1.65625,0 -3,1.34375 -3,3 l 0,10 c 0,1.65625 1.34375,3 3,3 l 14,0 c 1.65625,0 3,-1.34375 3,-3 l 0,-10 c 0,-1.65625 -1.34375,-3 -3,-3 z m 7,5 c 1.105469,0 2,0.894531 2,2 0,0.738281 -0.402344,1.371094 -1,1.71875 L 17,21 c 0,0.550781 -0.449219,1 -1,1 -0.550781,0 -1,-0.449219 -1,-1 l 0,-2.28125 C 14.402344,18.371094 14,17.738281 14,17 c 0,-1.105469 0.894531,-2 2,-2 z"
             inkscape:connector-curvature="0" />
        </g>
        <g
           style="fill:#217821"
           transform="matrix(0.5088141,0,0,0.5088141,70.154046,175.10267)"
           id="g127">
          <path
             style="fill:#217821"
             inkscape:connector-curvature="0"
             d="M 16,0 C 13.789063,0 11.878906,0.917969 10.6875,2.40625 9.496094,3.894531 9,5.824219 9,7.90625 L 9,9 12,9 12,7.90625 C 12,6.328125 12.390625,5.085938 13.03125,4.28125 13.671875,3.476563 14.542969,3 16,3 17.460938,3 18.328125,3.449219 18.96875,4.25 19.609375,5.050781 20,6.308594 20,7.90625 L 20,9 23,9 23,7.90625 C 23,5.8125 22.472656,3.863281 21.28125,2.375 20.089844,0.886719 18.207031,0 16,0 Z M 9,10 c -1.65625,0 -3,1.34375 -3,3 l 0,10 c 0,1.65625 1.34375,3 3,3 l 14,0 c 1.65625,0 3,-1.34375 3,-3 l 0,-10 c 0,-1.65625 -1.34375,-3 -3,-3 z m 7,5 c 1.105469,0 2,0.894531 2,2 0,0.738281 -0.402344,1.371094 -1,1.71875 L 17,21 c 0,0.550781 -0.449219,1 -1,1 -0.550781,0 -1,-0.449219 -1,-1 l 0,-2.28125 C 14.402344,18.371094 14,17.738281 14,17 c 0,-1.105469 0.894531,-2 2,-2 z"
             id="path125" />
        </g>
        <g
           style="fill:#2ca02c"
           id="g131"
           transform="matrix(0.5088141,0,0,0.5088141,87.432959,175.10267)">
          <path
             style="fill:#2ca02c"
             id="path129"
             d="M 16,0 C 13.789063,0 11.878906,0.917969 10.6875,2.40625 9.496094,3.894531 9,5.824219 9,7.90625 L 9,9 12,9 12,7.90625 C 12,6.328125 12.390625,5.085938 13.03125,4.28125 13.671875,3.476563 14.542969,3 16,3 17.460938,3 18.328125,3.449219 18.96875,4.25 19.609375,5.050781 20,6.308594 20,7.90625 L 20,9 23,9 23,7.90625 C 23,5.8125 22.472656,3.863281 21.28125,2.375 20.089844,0.886719 18.207031,0 16,0 Z M 9,10 c -1.65625,0 -3,1.34375 -3,3 l 0,10 c 0,1.65625 1.34375,3 3,3 l 14,0 c 1.65625,0 3,-1.34375 3,-3 l 0,-10 c 0,-1.65625 -1.34375,-3 -3,-3 z m 7,5 c 1.105469,0 2,0.894531 2,2 0,0.738281 -0.402344,1.371094 -1,1.71875 L 17,21 c 0,0.550781 -0.449219,1 -1,1 -0.550781,0 -1,-0.449219 -1,-1 l 0,-2.28125 C 14.402344,18.371094 14,17.738281 14,17 c 0,-1.105469 0.894531,-2 2,-2 z"
             inkscape:connector-curvature="0" />
        </g>
        <g
           style="fill:#37c837"
           transform="matrix(0.5088141,0,0,0.5088141,104.71187,175.10267)"
           id="g135">
          <path
             style="fill:#37c837"
             inkscape:connector-curvature="0"
             d="M 16,0 C 13.789063,0 11.878906,0.917969 10.6875,2.40625 9.496094,3.894531 9,5.824219 9,7.90625 L 9,9 12,9 12,7.90625 C 12,6.328125 12.390625,5.085938 13.03125,4.28125 13.671875,3.476563 14.542969,3 16,3 17.460938,3 18.328125,3.449219 18.96875,4.25 19.609375,5.050781 20,6.308594 20,7.90625 L 20,9 23,9 23,7.90625 C 23,5.8125 22.472656,3.863281 21.28125,2.375 20.089844,0.886719 18.207031,0 16,0 Z M 9,10 c -1.65625,0 -3,1.34375 -3,3 l 0,10 c 0,1.65625 1.34375,3 3,3 l 14,0 c 1.65625,0 3,-1.34375 3,-3 l 0,-10 c 0,-1.65625 -1.34375,-3 -3,-3 z m 7,5 c 1.105469,0 2,0.894531 2,2 0,0.738281 -0.402344,1.371094 -1,1.71875 L 17,21 c 0,0.550781 -0.449219,1 -1,1 -0.550781,0 -1,-0.449219 -1,-1 l 0,-2.28125 C 14.402344,18.371094 14,17.738281 14,17 c 0,-1.105469 0.894531,-2 2,-2 z"
             id="path133" />
        </g>
        <g
           style="fill:#5fd35f"
           transform="matrix(0.5088141,0,0,0.5088141,121.99079,175.10267)"
           id="g139">
          <path
             style="fill:#5fd35f"
             inkscape:connector-curvature="0"
             d="M 16,0 C 13.789063,0 11.878906,0.917969 10.6875,2.40625 9.496094,3.894531 9,5.824219 9,7.90625 L 9,9 12,9 12,7.90625 C 12,6.328125 12.390625,5.085938 13.03125,4.28125 13.671875,3.476563 14.542969,3 16,3 17.460938,3 18.328125,3.449219 18.96875,4.25 19.609375,5.050781 20,6.308594 20,7.90625 L 20,9 23,9 23,7.90625 C 23,5.8125 22.472656,3.863281 21.28125,2.375 20.089844,0.886719 18.207031,0 16,0 Z M 9,10 c -1.65625,0 -3,1.34375 -3,3 l 0,10 c 0,1.65625 1.34375,3 3,3 l 14,0 c 1.65625,0 3,-1.34375 3,-3 l 0,-10 c 0,-1.65625 -1.34375,-3 -3,-3 z m 7,5 c 1.105469,0 2,0.894531 2,2 0,0.738281 -0.402344,1.371094 -1,1.71875 L 17,21 c 0,0.550781 -0.449219,1 -1,1 -0.550781,0 -1,-0.449219 -1,-1 l 0,-2.28125 C 14.402344,18.371094 14,17.738281 14,17 c 0,-1.105469 0.894531,-2 2,-2 z"
             id="path137" />
        </g>
        <g
           style="fill:#87de87"
           id="g143"
           transform="matrix(0.5088141,0,0,0.5088141,139.26971,175.10267)">
          <path
             style="fill:#87de87"
             id="path141"
             d="M 16,0 C 13.789063,0 11.878906,0.917969 10.6875,2.40625 9.496094,3.894531 9,5.824219 9,7.90625 L 9,9 12,9 12,7.90625 C 12,6.328125 12.390625,5.085938 13.03125,4.28125 13.671875,3.476563 14.542969,3 16,3 17.460938,3 18.328125,3.449219 18.96875,4.25 19.609375,5.050781 20,6.308594 20,7.90625 L 20,9 23,9 23,7.90625 C 23,5.8125 22.472656,3.863281 21.28125,2.375 20.089844,0.886719 18.207031,0 16,0 Z M 9,10 c -1.65625,0 -3,1.34375 -3,3 l 0,10 c 0,1.65625 1.34375,3 3,3 l 14,0 c 1.65625,0 3,-1.34375 3,-3 l 0,-10 c 0,-1.65625 -1.34375,-3 -3,-3 z m 7,5 c 1.105469,0 2,0.894531 2,2 0,0.738281 -0.402344,1.371094 -1,1.71875 L 17,21 c 0,0.550781 -0.449219,1 -1,1 -0.550781,0 -1,-0.449219 -1,-1 l 0,-2.28125 C 14.402344,18.371094 14,17.738281 14,17 c 0,-1.105469 0.894531,-2 2,-2 z"
             inkscape:connector-curvature="0" />
        </g>
      </g>
      <g
         transform="translate(18.065465,-82.776802)"
         id="g279">
        <g
           id="g149"
           transform="matrix(0.5088141,0,0,0.5088141,18.317308,195.13542)"
           style="fill:#000000">
          <path
             id="path147"
             d="M 16,0 C 13.789063,0 11.878906,0.917969 10.6875,2.40625 9.496094,3.894531 9,5.824219 9,7.90625 L 9,9 12,9 12,7.90625 C 12,6.328125 12.390625,5.085938 13.03125,4.28125 13.671875,3.476563 14.542969,3 16,3 17.460938,3 18.328125,3.449219 18.96875,4.25 19.609375,5.050781 20,6.308594 20,7.90625 L 20,9 23,9 23,7.90625 C 23,5.8125 22.472656,3.863281 21.28125,2.375 20.089844,0.886719 18.207031,0 16,0 Z M 9,10 c -1.65625,0 -3,1.34375 -3,3 l 0,10 c 0,1.65625 1.34375,3 3,3 l 14,0 c 1.65625,0 3,-1.34375 3,-3 l 0,-10 c 0,-1.65625 -1.34375,-3 -3,-3 z m 7,5 c 1.105469,0 2,0.894531 2,2 0,0.738281 -0.402344,1.371094 -1,1.71875 L 17,21 c 0,0.550781 -0.449219,1 -1,1 -0.550781,0 -1,-0.449219 -1,-1 l 0,-2.28125 C 14.402344,18.371094 14,17.738281 14,17 c 0,-1.105469 0.894531,-2 2,-2 z"
             inkscape:connector-curvature="0"
             style="fill:#000000" />
        </g>
        <g
           transform="matrix(0.5088141,0,0,0.5088141,35.596217,195.13542)"
           id="g153"
           style="fill:#2b0000">
          <path
             inkscape:connector-curvature="0"
             d="M 16,0 C 13.789063,0 11.878906,0.917969 10.6875,2.40625 9.496094,3.894531 9,5.824219 9,7.90625 L 9,9 12,9 12,7.90625 C 12,6.328125 12.390625,5.085938 13.03125,4.28125 13.671875,3.476563 14.542969,3 16,3 17.460938,3 18.328125,3.449219 18.96875,4.25 19.609375,5.050781 20,6.308594 20,7.90625 L 20,9 23,9 23,7.90625 C 23,5.8125 22.472656,3.863281 21.28125,2.375 20.089844,0.886719 18.207031,0 16,0 Z M 9,10 c -1.65625,0 -3,1.34375 -3,3 l 0,10 c 0,1.65625 1.34375,3 3,3 l 14,0 c 1.65625,0 3,-1.34375 3,-3 l 0,-10 c 0,-1.65625 -1.34375,-3 -3,-3 z m 7,5 c 1.105469,0 2,0.894531 2,2 0,0.738281 -0.402344,1.371094 -1,1.71875 L 17,21 c 0,0.550781 -0.449219,1 -1,1 -0.550781,0 -1,-0.449219 -1,-1 l 0,-2.28125 C 14.402344,18.371094 14,17.738281 14,17 c 0,-1.105469 0.894531,-2 2,-2 z"
             id="path151"
             style="fill:#2b0000" />
        </g>
        <g
           transform="matrix(0.5088141,0,0,0.5088141,52.875133,195.13542)"
           id="g157"
           style="fill:#550000">
          <path
             inkscape:connector-curvature="0"
             d="M 16,0 C 13.789063,0 11.878906,0.917969 10.6875,2.40625 9.496094,3.894531 9,5.824219 9,7.90625 L 9,9 12,9 12,7.90625 C 12,6.328125 12.390625,5.085938 13.03125,4.28125 13.671875,3.476563 14.542969,3 16,3 17.460938,3 18.328125,3.449219 18.96875,4.25 19.609375,5.050781 20,6.308594 20,7.90625 L 20,9 23,9 23,7.90625 C 23,5.8125 22.472656,3.863281 21.28125,2.375 20.089844,0.886719 18.207031,0 16,0 Z M 9,10 c -1.65625,0 -3,1.34375 -3,3 l 0,10 c 0,1.65625 1.34375,3 3,3 l 14,0 c 1.65625,0 3,-1.34375 3,-3 l 0,-10 c 0,-1.65625 -1.34375,-3 -3,-3 z m 7,5 c 1.105469,0 2,0.894531 2,2 0,0.738281 -0.402344,1.371094 -1,1.71875 L 17,21 c 0,0.550781 -0.449219,1 -1,1 -0.550781,0 -1,-0.449219 -1,-1 l 0,-2.28125 C 14.402344,18.371094 14,17.738281 14,17 c 0,-1.105469 0.894531,-2 2,-2 z"
             id="path155"
             style="fill:#550000" />
        </g>
        <g
           id="g161"
           transform="matrix(0.5088141,0,0,0.5088141,70.154046,195.13542)"
           style="fill:#800000">
          <path
             id="path159"
             d="M 16,0 C 13.789063,0 11.878906,0.917969 10.6875,2.40625 9.496094,3.894531 9,5.824219 9,7.90625 L 9,9 12,9 12,7.90625 C 12,6.328125 12.390625,5.085938 13.03125,4.28125 13.671875,3.476563 14.542969,3 16,3 17.460938,3 18.328125,3.449219 18.96875,4.25 19.609375,5.050781 20,6.308594 20,7.90625 L 20,9 23,9 23,7.90625 C 23,5.8125 22.472656,3.863281 21.28125,2.375 20.089844,0.886719 18.207031,0 16,0 Z M 9,10 c -1.65625,0 -3,1.34375 -3,3 l 0,10 c 0,1.65625 1.34375,3 3,3 l 14,0 c 1.65625,0 3,-1.34375 3,-3 l 0,-10 c 0,-1.65625 -1.34375,-3 -3,-3 z m 7,5 c 1.105469,0 2,0.894531 2,2 0,0.738281 -0.402344,1.371094 -1,1.71875 L 17,21 c 0,0.550781 -0.449219,1 -1,1 -0.550781,0 -1,-0.449219 -1,-1 l 0,-2.28125 C 14.402344,18.371094 14,17.738281 14,17 c 0,-1.105469 0.894531,-2 2,-2 z"
             inkscape:connector-curvature="0"
             style="fill:#800000" />
        </g>
        <g
           transform="matrix(0.5088141,0,0,0.5088141,87.432959,195.13542)"
           id="g165"
           style="fill:#aa0000">
          <path
             inkscape:connector-curvature="0"
             d="M 16,0 C 13.789063,0 11.878906,0.917969 10.6875,2.40625 9.496094,3.894531 9,5.824219 9,7.90625 L 9,9 12,9 12,7.90625 C 12,6.328125 12.390625,5.085938 13.03125,4.28125 13.671875,3.476563 14.542969,3 16,3 17.460938,3 18.328125,3.449219 18.96875,4.25 19.609375,5.050781 20,6.308594 20,7.90625 L 20,9 23,9 23,7.90625 C 23,5.8125 22.472656,3.863281 21.28125,2.375 20.089844,0.886719 18.207031,0 16,0 Z M 9,10 c -1.65625,0 -3,1.34375 -3,3 l 0,10 c 0,1.65625 1.34375,3 3,3 l 14,0 c 1.65625,0 3,-1.34375 3,-3 l 0,-10 c 0,-1.65625 -1.34375,-3 -3,-3 z m 7,5 c 1.105469,0 2,0.894531 2,2 0,0.738281 -0.402344,1.371094 -1,1.71875 L 17,21 c 0,0.550781 -0.449219,1 -1,1 -0.550781,0 -1,-0.449219 -1,-1 l 0,-2.28125 C 14.402344,18.371094 14,17.738281 14,17 c 0,-1.105469 0.894531,-2 2,-2 z"
             id="path163"
             style="fill:#aa0000" />
        </g>
        <g
           id="g169"
           transform="matrix(0.5088141,0,0,0.5088141,104.71187,195.13542)"
           style="fill:#d40000">
          <path
             id="path167"
             d="M 16,0 C 13.789063,0 11.878906,0.917969 10.6875,2.40625 9.496094,3.894531 9,5.824219 9,7.90625 L 9,9 12,9 12,7.90625 C 12,6.328125 12.390625,5.085938 13.03125,4.28125 13.671875,3.476563 14.542969,3 16,3 17.460938,3 18.328125,3.449219 18.96875,4.25 19.609375,5.050781 20,6.308594 20,7.90625 L 20,9 23,9 23,7.90625 C 23,5.8125 22.472656,3.863281 21.28125,2.375 20.089844,0.886719 18.207031,0 16,0 Z M 9,10 c -1.65625,0 -3,1.34375 -3,3 l 0,10 c 0,1.65625 1.34375,3 3,3 l 14,0 c 1.65625,0 3,-1.34375 3,-3 l 0,-10 c 0,-1.65625 -1.34375,-3 -3,-3 z m 7,5 c 1.105469,0 2,0.894531 2,2 0,0.738281 -0.402344,1.371094 -1,1.71875 L 17,21 c 0,0.550781 -0.449219,1 -1,1 -0.550781,0 -1,-0.449219 -1,-1 l 0,-2.28125 C 14.402344,18.371094 14,17.738281 14,17 c 0,-1.105469 0.894531,-2 2,-2 z"
             inkscape:connector-curvature="0"
             style="fill:#d40000" />
        </g>
        <g
           id="g173"
           transform="matrix(0.5088141,0,0,0.5088141,121.99079,195.13542)"
           style="fill:#ff0000">
          <path
             id="path171"
             d="M 16,0 C 13.789063,0 11.878906,0.917969 10.6875,2.40625 9.496094,3.894531 9,5.824219 9,7.90625 L 9,9 12,9 12,7.90625 C 12,6.328125 12.390625,5.085938 13.03125,4.28125 13.671875,3.476563 14.542969,3 16,3 17.460938,3 18.328125,3.449219 18.96875,4.25 19.609375,5.050781 20,6.308594 20,7.90625 L 20,9 23,9 23,7.90625 C 23,5.8125 22.472656,3.863281 21.28125,2.375 20.089844,0.886719 18.207031,0 16,0 Z M 9,10 c -1.65625,0 -3,1.34375 -3,3 l 0,10 c 0,1.65625 1.34375,3 3,3 l 14,0 c 1.65625,0 3,-1.34375 3,-3 l 0,-10 c 0,-1.65625 -1.34375,-3 -3,-3 z m 7,5 c 1.105469,0 2,0.894531 2,2 0,0.738281 -0.402344,1.371094 -1,1.71875 L 17,21 c 0,0.550781 -0.449219,1 -1,1 -0.550781,0 -1,-0.449219 -1,-1 l 0,-2.28125 C 14.402344,18.371094 14,17.738281 14,17 c 0,-1.105469 0.894531,-2 2,-2 z"
             inkscape:connector-curvature="0"
             style="fill:#ff0000" />
        </g>
        <g
           transform="matrix(0.5088141,0,0,0.5088141,139.26971,195.13542)"
           id="g177"
           style="fill:#ff5555">
          <path
             inkscape:connector-curvature="0"
             d="M 16,0 C 13.789063,0 11.878906,0.917969 10.6875,2.40625 9.496094,3.894531 9,5.824219 9,7.90625 L 9,9 12,9 12,7.90625 C 12,6.328125 12.390625,5.085938 13.03125,4.28125 13.671875,3.476563 14.542969,3 16,3 17.460938,3 18.328125,3.449219 18.96875,4.25 19.609375,5.050781 20,6.308594 20,7.90625 L 20,9 23,9 23,7.90625 C 23,5.8125 22.472656,3.863281 21.28125,2.375 20.089844,0.886719 18.207031,0 16,0 Z M 9,10 c -1.65625,0 -3,1.34375 -3,3 l 0,10 c 0,1.65625 1.34375,3 3,3 l 14,0 c 1.65625,0 3,-1.34375 3,-3 l 0,-10 c 0,-1.65625 -1.34375,-3 -3,-3 z m 7,5 c 1.105469,0 2,0.894531 2,2 0,0.738281 -0.402344,1.371094 -1,1.71875 L 17,21 c 0,0.550781 -0.449219,1 -1,1 -0.550781,0 -1,-0.449219 -1,-1 l 0,-2.28125 C 14.402344,18.371094 14,17.738281 14,17 c 0,-1.105469 0.894531,-2 2,-2 z"
             id="path175"
             style="fill:#ff5555" />
        </g>
      </g>
      <g
         transform="translate(18.065465,-82.776786)"
         id="g315">
        <g
           style="fill:#000000"
           transform="matrix(0.5088141,0,0,0.5088141,18.317308,215.16815)"
           id="g183">
          <path
             style="fill:#000000"
             inkscape:connector-curvature="0"
             d="M 16,0 C 13.789063,0 11.878906,0.917969 10.6875,2.40625 9.496094,3.894531 9,5.824219 9,7.90625 L 9,9 12,9 12,7.90625 C 12,6.328125 12.390625,5.085938 13.03125,4.28125 13.671875,3.476563 14.542969,3 16,3 17.460938,3 18.328125,3.449219 18.96875,4.25 19.609375,5.050781 20,6.308594 20,7.90625 L 20,9 23,9 23,7.90625 C 23,5.8125 22.472656,3.863281 21.28125,2.375 20.089844,0.886719 18.207031,0 16,0 Z M 9,10 c -1.65625,0 -3,1.34375 -3,3 l 0,10 c 0,1.65625 1.34375,3 3,3 l 14,0 c 1.65625,0 3,-1.34375 3,-3 l 0,-10 c 0,-1.65625 -1.34375,-3 -3,-3 z m 7,5 c 1.105469,0 2,0.894531 2,2 0,0.738281 -0.402344,1.371094 -1,1.71875 L 17,21 c 0,0.550781 -0.449219,1 -1,1 -0.550781,0 -1,-0.449219 -1,-1 l 0,-2.28125 C 14.402344,18.371094 14,17.738281 14,17 c 0,-1.105469 0.894531,-2 2,-2 z"
             id="path181" />
        </g>
        <g
           style="fill:#0b0b28"
           id="g187"
           transform="matrix(0.5088141,0,0,0.5088141,35.596217,215.16815)">
          <path
             style="fill:#0b0b28"
             id="path185"
             d="M 16,0 C 13.789063,0 11.878906,0.917969 10.6875,2.40625 9.496094,3.894531 9,5.824219 9,7.90625 L 9,9 12,9 12,7.90625 C 12,6.328125 12.390625,5.085938 13.03125,4.28125 13.671875,3.476563 14.542969,3 16,3 17.460938,3 18.328125,3.449219 18.96875,4.25 19.609375,5.050781 20,6.308594 20,7.90625 L 20,9 23,9 23,7.90625 C 23,5.8125 22.472656,3.863281 21.28125,2.375 20.089844,0.886719 18.207031,0 16,0 Z M 9,10 c -1.65625,0 -3,1.34375 -3,3 l 0,10 c 0,1.65625 1.34375,3 3,3 l 14,0 c 1.65625,0 3,-1.34375 3,-3 l 0,-10 c 0,-1.65625 -1.34375,-3 -3,-3 z m 7,5 c 1.105469,0 2,0.894531 2,2 0,0.738281 -0.402344,1.371094 -1,1.71875 L 17,21 c 0,0.550781 -0.449219,1 -1,1 -0.550781,0 -1,-0.449219 -1,-1 l 0,-2.28125 C 14.402344,18.371094 14,17.738281 14,17 c 0,-1.105469 0.894531,-2 2,-2 z"
             inkscape:connector-curvature="0" />
        </g>
        <g
           style="fill:#161650"
           id="g191"
           transform="matrix(0.5088141,0,0,0.5088141,52.875133,215.16815)">
          <path
             style="fill:#161650"
             id="path189"
             d="M 16,0 C 13.789063,0 11.878906,0.917969 10.6875,2.40625 9.496094,3.894531 9,5.824219 9,7.90625 L 9,9 12,9 12,7.90625 C 12,6.328125 12.390625,5.085938 13.03125,4.28125 13.671875,3.476563 14.542969,3 16,3 17.460938,3 18.328125,3.449219 18.96875,4.25 19.609375,5.050781 20,6.308594 20,7.90625 L 20,9 23,9 23,7.90625 C 23,5.8125 22.472656,3.863281 21.28125,2.375 20.089844,0.886719 18.207031,0 16,0 Z M 9,10 c -1.65625,0 -3,1.34375 -3,3 l 0,10 c 0,1.65625 1.34375,3 3,3 l 14,0 c 1.65625,0 3,-1.34375 3,-3 l 0,-10 c 0,-1.65625 -1.34375,-3 -3,-3 z m 7,5 c 1.105469,0 2,0.894531 2,2 0,0.738281 -0.402344,1.371094 -1,1.71875 L 17,21 c 0,0.550781 -0.449219,1 -1,1 -0.550781,0 -1,-0.449219 -1,-1 l 0,-2.28125 C 14.402344,18.371094 14,17.738281 14,17 c 0,-1.105469 0.894531,-2 2,-2 z"
             inkscape:connector-curvature="0" />
        </g>
        <g
           style="fill:#212178"
           transform="matrix(0.5088141,0,0,0.5088141,70.154046,215.16815)"
           id="g195">
          <path
             style="fill:#212178"
             inkscape:connector-curvature="0"
             d="M 16,0 C 13.789063,0 11.878906,0.917969 10.6875,2.40625 9.496094,3.894531 9,5.824219 9,7.90625 L 9,9 12,9 12,7.90625 C 12,6.328125 12.390625,5.085938 13.03125,4.28125 13.671875,3.476563 14.542969,3 16,3 17.460938,3 18.328125,3.449219 18.96875,4.25 19.609375,5.050781 20,6.308594 20,7.90625 L 20,9 23,9 23,7.90625 C 23,5.8125 22.472656,3.863281 21.28125,2.375 20.089844,0.886719 18.207031,0 16,0 Z M 9,10 c -1.65625,0 -3,1.34375 -3,3 l 0,10 c 0,1.65625 1.34375,3 3,3 l 14,0 c 1.65625,0 3,-1.34375 3,-3 l 0,-10 c 0,-1.65625 -1.34375,-3 -3,-3 z m 7,5 c 1.105469,0 2,0.894531 2,2 0,0.738281 -0.402344,1.371094 -1,1.71875 L 17,21 c 0,0.550781 -0.449219,1 -1,1 -0.550781,0 -1,-0.449219 -1,-1 l 0,-2.28125 C 14.402344,18.371094 14,17.738281 14,17 c 0,-1.105469 0.894531,-2 2,-2 z"
             id="path193" />
        </g>
        <g
           style="fill:#2c2ca0"
           id="g199"
           transform="matrix(0.5088141,0,0,0.5088141,87.432959,215.16815)">
          <path
             style="fill:#2c2ca0"
             id="path197"
             d="M 16,0 C 13.789063,0 11.878906,0.917969 10.6875,2.40625 9.496094,3.894531 9,5.824219 9,7.90625 L 9,9 12,9 12,7.90625 C 12,6.328125 12.390625,5.085938 13.03125,4.28125 13.671875,3.476563 14.542969,3 16,3 17.460938,3 18.328125,3.449219 18.96875,4.25 19.609375,5.050781 20,6.308594 20,7.90625 L 20,9 23,9 23,7.90625 C 23,5.8125 22.472656,3.863281 21.28125,2.375 20.089844,0.886719 18.207031,0 16,0 Z M 9,10 c -1.65625,0 -3,1.34375 -3,3 l 0,10 c 0,1.65625 1.34375,3 3,3 l 14,0 c 1.65625,0 3,-1.34375 3,-3 l 0,-10 c 0,-1.65625 -1.34375,-3 -3,-3 z m 7,5 c 1.105469,0 2,0.894531 2,2 0,0.738281 -0.402344,1.371094 -1,1.71875 L 17,21 c 0,0.550781 -0.449219,1 -1,1 -0.550781,0 -1,-0.449219 -1,-1 l 0,-2.28125 C 14.402344,18.371094 14,17.738281 14,17 c 0,-1.105469 0.894531,-2 2,-2 z"
             inkscape:connector-curvature="0" />
        </g>
        <g
           style="fill:#3737c8"
           transform="matrix(0.5088141,0,0,0.5088141,104.71187,215.16815)"
           id="g203">
          <path
             style="fill:#3737c8"
             inkscape:connector-curvature="0"
             d="M 16,0 C 13.789063,0 11.878906,0.917969 10.6875,2.40625 9.496094,3.894531 9,5.824219 9,7.90625 L 9,9 12,9 12,7.90625 C 12,6.328125 12.390625,5.085938 13.03125,4.28125 13.671875,3.476563 14.542969,3 16,3 17.460938,3 18.328125,3.449219 18.96875,4.25 19.609375,5.050781 20,6.308594 20,7.90625 L 20,9 23,9 23,7.90625 C 23,5.8125 22.472656,3.863281 21.28125,2.375 20.089844,0.886719 18.207031,0 16,0 Z M 9,10 c -1.65625,0 -3,1.34375 -3,3 l 0,10 c 0,1.65625 1.34375,3 3,3 l 14,0 c 1.65625,0 3,-1.34375 3,-3 l 0,-10 c 0,-1.65625 -1.34375,-3 -3,-3 z m 7,5 c 1.105469,0 2,0.894531 2,2 0,0.738281 -0.402344,1.371094 -1,1.71875 L 17,21 c 0,0.550781 -0.449219,1 -1,1 -0.550781,0 -1,-0.449219 -1,-1 l 0,-2.28125 C 14.402344,18.371094 14,17.738281 14,17 c 0,-1.105469 0.894531,-2 2,-2 z"
             id="path201" />
        </g>
        <g
           style="fill:#5f5fd3"
           transform="matrix(0.5088141,0,0,0.5088141,121.99079,215.16815)"
           id="g207">
          <path
             style="fill:#5f5fd3"
             inkscape:connector-curvature="0"
             d="M 16,0 C 13.789063,0 11.878906,0.917969 10.6875,2.40625 9.496094,3.894531 9,5.824219 9,7.90625 L 9,9 12,9 12,7.90625 C 12,6.328125 12.390625,5.085938 13.03125,4.28125 13.671875,3.476563 14.542969,3 16,3 17.460938,3 18.328125,3.449219 18.96875,4.25 19.609375,5.050781 20,6.308594 20,7.90625 L 20,9 23,9 23,7.90625 C 23,5.8125 22.472656,3.863281 21.28125,2.375 20.089844,0.886719 18.207031,0 16,0 Z M 9,10 c -1.65625,0 -3,1.34375 -3,3 l 0,10 c 0,1.65625 1.34375,3 3,3 l 14,0 c 1.65625,0 3,-1.34375 3,-3 l 0,-10 c 0,-1.65625 -1.34375,-3 -3,-3 z m 7,5 c 1.105469,0 2,0.894531 2,2 0,0.738281 -0.402344,1.371094 -1,1.71875 L 17,21 c 0,0.550781 -0.449219,1 -1,1 -0.550781,0 -1,-0.449219 -1,-1 l 0,-2.28125 C 14.402344,18.371094 14,17.738281 14,17 c 0,-1.105469 0.894531,-2 2,-2 z"
             id="path205" />
        </g>
        <g
           style="fill:#8787de"
           id="g211"
           transform="matrix(0.5088141,0,0,0.5088141,139.26971,215.16815)">
          <path
             style="fill:#8787de"
             id="path209"
             d="M 16,0 C 13.789063,0 11.878906,0.917969 10.6875,2.40625 9.496094,3.894531 9,5.824219 9,7.90625 L 9,9 12,9 12,7.90625 C 12,6.328125 12.390625,5.085938 13.03125,4.28125 13.671875,3.476563 14.542969,3 16,3 17.460938,3 18.328125,3.449219 18.96875,4.25 19.609375,5.050781 20,6.308594 20,7.90625 L 20,9 23,9 23,7.90625 C 23,5.8125 22.472656,3.863281 21.28125,2.375 20.089844,0.886719 18.207031,0 16,0 Z M 9,10 c -1.65625,0 -3,1.34375 -3,3 l 0,10 c 0,1.65625 1.34375,3 3,3 l 14,0 c 1.65625,0 3,-1.34375 3,-3 l 0,-10 c 0,-1.65625 -1.34375,-3 -3,-3 z m 7,5 c 1.105469,0 2,0.894531 2,2 0,0.738281 -0.402344,1.371094 -1,1.71875 L 17,21 c 0,0.550781 -0.449219,1 -1,1 -0.550781,0 -1,-0.449219 -1,-1 l 0,-2.28125 C 14.402344,18.371094 14,17.738281 14,17 c 0,-1.105469 0.894531,-2 2,-2 z"
             inkscape:connector-curvature="0" />
        </g>
      </g>
    </g>
  </g>
</svg>
